M48
; DRILL file KiCad 10.0.1 date 2026-04-18T21:27:43
; FORMAT={-:-/ absolute / inch / decimal}
; #@! TF.CreationDate,2026-04-18T21:27:43+02:00
; #@! TF.GenerationSoftware,Kicad,Pcbnew,10.0.1
; #@! TF.FileFunction,Plated,1,2,PTH
FMAT,2
INCH
; #@! TA.AperFunction,Plated,PTH,ViaDrill
T1C0.0118
; #@! TA.AperFunction,Plated,PTH,ComponentDrill
T2C0.0118
; #@! TA.AperFunction,Plated,PTH,ComponentDrill
T3C0.0374
; #@! TA.AperFunction,Plated,PTH,ComponentDrill
T4C0.0394
; #@! TA.AperFunction,Plated,PTH,ComponentDrill
T5C0.1063
%
G90
G05
T1
X3.2008Y-3.8701
X3.2047Y-4.0709
X3.2047Y-4.2638
X3.2087Y-4.9488
X3.2126Y-4.5669
X3.2165Y-4.3937
X3.2165Y-4.7362
X3.2874Y-4.5709
X3.2913Y-4.3976
X3.2913Y-4.7598
X3.2953Y-3.7598
X3.2953Y-4.0512
X3.2992Y-4.2717
X3.3858Y-4.9606
X3.3898Y-5.1575
X3.4488Y-3.689
X3.5433Y-4.3307
X3.5591Y-5.1102
X3.5669Y-4.3858
X3.5827Y-5.2087
X3.5906Y-4.437
X3.5945Y-3.7717
X3.6142Y-4.4803
X3.6535Y-4.7677
X3.6575Y-4.5118
X3.6929Y-4.5551
X3.7047Y-5.2165
X3.7087Y-4.1496
X3.7126Y-3.878
X3.7244Y-4.2126
X3.7362Y-4.8583
X3.7717Y-5.0787
X3.7992Y-3.9606
X3.7992Y-5.2126
X3.8189Y-5.0079
X3.8543Y-5.1614
X3.878Y-4.7205
X3.8819Y-4.8937
X3.9685Y-4.1496
X3.9724Y-4.0197
X3.9764Y-4.2126
X3.9764Y-4.7953
X3.9764Y-4.9843
X3.9882Y-4.4213
X3.9882Y-5.2283
X3.9921Y-5.1575
X4.0Y-5.3858
X4.0079Y-4.689
X4.0079Y-5.0433
X4.0276Y-4.6575
X4.0315Y-4.5472
X4.0472Y-4.2008
X4.0512Y-4.6299
X4.0709Y-3.9488
X4.0709Y-4.0394
X4.0709Y-4.1693
X4.0748Y-4.6063
X4.0787Y-4.1339
X4.122Y-4.0433
X4.1457Y-4.1299
X4.1474Y-4.5613
X4.1575Y-4.5039
X4.1575Y-4.5354
X4.1614Y-3.9843
X4.1732Y-4.4803
X4.1772Y-3.9173
X4.1772Y-4.7835
X4.185Y-4.8976
X4.185Y-5.1575
X4.189Y-4.7165
X4.2047Y-5.0177
X4.2165Y-4.0472
X4.2244Y-4.0157
X4.2362Y-5.1043
X4.248Y-4.7165
X4.2677Y-4.7953
X4.2756Y-4.685
X4.2913Y-4.5433
X4.2992Y-4.2953
X4.2992Y-4.378
X4.3071Y-5.0965
X4.3228Y-4.4882
X4.3228Y-4.8602
X4.3307Y-4.1339
X4.3346Y-3.6201
X4.3346Y-3.6594
X4.3346Y-3.7008
X4.3406Y-3.8583
X4.3425Y-4.7165
X4.3504Y-4.6102
X4.3543Y-4.0827
X4.3622Y-4.1339
X4.3622Y-5.065
X4.378Y-4.3543
X4.378Y-4.5787
X4.3858Y-5.0177
X4.3879Y-4.5454
X4.3898Y-4.8898
X4.4291Y-4.2323
X4.4331Y-4.6378
X4.439Y-3.622
X4.439Y-3.6555
X4.439Y-3.685
X4.439Y-3.7126
X4.439Y-3.8583
X4.4409Y-4.5197
X4.4528Y-4.7441
X4.4528Y-5.1142
X4.4567Y-4.1496
X4.4567Y-4.2677
X4.4724Y-4.9016
X4.4803Y-4.3701
X4.4803Y-4.5669
X4.4921Y-4.689
X4.5157Y-4.3228
X4.5157Y-4.5433
X4.5374Y-3.8583
X4.5394Y-4.4252
X4.5512Y-4.122
X4.5512Y-4.7087
X4.5531Y-3.6122
X4.5531Y-3.6516
X4.5531Y-3.6929
X4.5591Y-4.2323
X4.5591Y-4.6417
X4.5669Y-4.5
X4.5669Y-5.0866
X4.5709Y-4.5709
X4.5709Y-4.8268
X4.5866Y-4.1063
X4.5945Y-4.1929
X4.5984Y-4.3031
X4.5984Y-4.374
X4.6181Y-4.6457
X4.6299Y-4.2559
X4.6339Y-4.0472
X4.6358Y-3.8583
X4.6378Y-4.5157
X4.6535Y-4.0787
X4.6535Y-4.1339
X4.6535Y-4.4252
X4.6764Y-4.5984
X4.6811Y-4.8622
X4.685Y-4.8228
X4.6929Y-4.1024
X4.6929Y-4.3622
X4.6969Y-5.126
X4.7126Y-4.5748
X4.7205Y-5.0472
X4.7244Y-4.874
X4.7343Y-3.8583
X4.7382Y-3.6181
X4.7382Y-3.6575
X4.7382Y-3.6969
X4.7402Y-4.3071
X4.7402Y-4.8976
X4.7441Y-4.1614
X4.752Y-4.7323
X4.7638Y-4.4803
X4.7756Y-5.1299
X4.7874Y-4.0827
X4.7913Y-4.0276
X4.7953Y-4.2244
X4.815Y-4.9528
X4.8189Y-5.0591
X4.8307Y-4.8071
X4.8323Y-4.7283
X4.8386Y-3.6201
X4.8386Y-3.6594
X4.8386Y-3.6988
X4.8386Y-4.1299
X4.8425Y-4.252
X4.845Y-3.8608
X4.8504Y-4.2047
X4.8583Y-4.4764
X4.8661Y-4.0315
X4.8819Y-4.8976
X4.8858Y-5.1614
X4.8937Y-4.0827
X4.8937Y-4.6969
X4.9134Y-5.0512
X4.9213Y-4.2559
X4.9252Y-4.0079
X4.9252Y-4.8878
X4.9291Y-5.1063
X4.939Y-3.6201
X4.939Y-3.6594
X4.939Y-3.6988
X4.9434Y-3.8608
X4.9528Y-4.3976
X4.9567Y-3.9843
X4.9646Y-4.3346
X4.9646Y-4.9055
X4.9764Y-5.0945
X4.9921Y-3.9843
X4.9961Y-4.5236
X4.9961Y-4.626
X5.0Y-5.0315
X5.0039Y-4.2717
X5.0039Y-5.1378
X5.0118Y-4.3386
X5.0118Y-4.3976
X5.0276Y-4.8346
X5.0433Y-4.2638
X5.0512Y-4.3268
X5.0669Y-4.6772
X5.0709Y-4.5197
X5.0709Y-4.5748
X5.0748Y-4.0591
X5.0748Y-4.1929
X5.0945Y-4.2717
X5.0945Y-4.3386
X5.0945Y-4.3976
X5.1024Y-4.0157
X5.1024Y-4.4449
X5.1181Y-4.185
X5.1299Y-3.8622
X5.1339Y-4.8937
X5.1378Y-3.6201
X5.1378Y-3.6594
X5.1378Y-3.7008
X5.1378Y-4.2992
X5.1417Y-5.1811
X5.1654Y-3.9921
X5.1654Y-4.7244
X5.1732Y-4.2008
X5.1732Y-4.5276
X5.1811Y-4.1299
X5.2087Y-4.189
X5.2126Y-5.2756
X5.2165Y-4.5
X5.2283Y-4.1024
X5.2303Y-3.8602
X5.2382Y-3.624
X5.2382Y-3.6634
X5.2382Y-3.7047
X5.2441Y-4.3909
X5.252Y-4.2756
X5.2638Y-4.5394
X5.2677Y-4.0709
X5.2677Y-4.3465
X5.2717Y-4.4961
X5.2795Y-4.6142
X5.2913Y-4.252
X5.2913Y-4.3268
X5.311Y-4.1457
X5.3189Y-4.8622
X5.3307Y-3.8602
X5.3307Y-4.3228
X5.3346Y-4.3898
X5.3386Y-3.622
X5.3386Y-3.6614
X5.3386Y-3.7028
X5.3425Y-4.185
X5.3583Y-4.5118
X5.3583Y-4.6181
X5.3622Y-4.3465
X5.3622Y-4.374
X5.3622Y-5.1811
X5.3858Y-4.5748
X5.3898Y-5.2717
X5.3976Y-4.1417
X5.3976Y-5.0394
X5.4016Y-4.2992
X5.4055Y-4.4488
X5.4173Y-4.9094
X5.4272Y-3.8602
X5.4331Y-4.1969
X5.4331Y-4.8189
X5.4646Y-4.1024
X5.4685Y-4.5118
X5.4724Y-4.0709
X5.4724Y-5.1181
X5.4774Y-4.1772
X5.4921Y-4.7835
X5.5039Y-4.1457
X5.5118Y-5.0472
X5.5157Y-4.5
X5.5197Y-4.8701
X5.5295Y-3.8583
X5.5551Y-4.4291
X5.5669Y-4.7244
X5.5669Y-5.2205
X5.5787Y-4.5079
X5.5827Y-4.1969
X5.5984Y-4.815
X5.5984Y-4.8976
X5.622Y-3.9685
X5.622Y-4.1969
X5.6299Y-3.8583
X5.6299Y-4.3465
X5.6378Y-5.0472
X5.6457Y-3.6634
X5.6457Y-4.0866
X5.6614Y-5.2205
X5.6693Y-5.0551
X5.6772Y-4.1063
X5.685Y-4.0315
X5.685Y-5.1417
X5.689Y-4.4291
X5.7047Y-4.3346
X5.7087Y-4.4961
X5.7087Y-4.6181
X5.7244Y-4.6929
X5.7265Y-5.0651
X5.7343Y-3.8563
X5.7402Y-4.2047
X5.7795Y-4.2677
X5.7795Y-4.3307
X5.7835Y-4.6811
X5.7874Y-4.4331
X5.7874Y-4.5669
X5.7953Y-4.0866
X5.7953Y-4.1811
X5.8327Y-3.6201
X5.8327Y-3.6594
X5.8327Y-3.7008
X5.8346Y-3.8602
X5.8346Y-5.0157
X5.8543Y-4.5157
X5.8622Y-4.3504
X5.8701Y-4.252
X5.874Y-4.811
X5.8819Y-3.9567
X5.8898Y-4.748
X5.8937Y-4.6929
X5.9173Y-4.1181
X5.9347Y-5.2969
X5.937Y-4.3031
X5.937Y-4.4724
X5.9409Y-5.1929
X5.948Y-5.2556
X5.9567Y-4.5236
X5.9764Y-3.8661
X5.9921Y-4.189
X5.9961Y-5.2717
X6.0157Y-4.6693
X6.0197Y-4.378
X6.0236Y-5.3543
X6.0276Y-3.8228
X6.0472Y-5.0551
X6.0551Y-4.7087
X6.0553Y-4.4724
X6.0709Y-4.811
X6.0709Y-5.1496
X6.0709Y-5.2047
X6.0827Y-4.315
X6.0866Y-4.9882
X6.0945Y-4.7874
X6.1024Y-3.9094
X6.1181Y-4.7244
X6.122Y-4.9134
X6.1417Y-4.5197
X6.1417Y-4.6929
X6.1417Y-4.9882
X6.1496Y-5.1496
X6.1614Y-4.3425
X6.1732Y-4.6772
X6.1732Y-4.7598
X6.1732Y-5.0354
X6.189Y-5.2165
X6.2205Y-5.0354
X6.2244Y-4.7598
X6.2283Y-4.6772
X6.2283Y-4.7953
X6.2323Y-3.6299
X6.2402Y-4.0669
X6.2441Y-4.9291
X6.2638Y-4.4606
X6.2677Y-3.6535
X6.2717Y-4.6417
X6.2717Y-5.1299
X6.2874Y-4.5945
X6.3071Y-3.7205
X6.3071Y-5.1299
X6.3228Y-5.0551
X6.3307Y-4.7165
X6.3386Y-4.8669
X6.3386Y-5.0945
X6.3701Y-5.1535
X6.378Y-3.6535
X6.4016Y-4.7874
X6.4173Y-4.4567
X6.4213Y-5.1535
X6.4291Y-4.0709
X6.4291Y-5.2165
X6.4331Y-4.9213
X6.437Y-3.6102
X6.4409Y-3.7008
X6.4803Y-4.6181
X6.5137Y-3.9567
X6.5236Y-5.1496
X6.5354Y-3.937
X6.5354Y-4.122
X6.5354Y-4.4528
X6.5512Y-3.9213
X6.5669Y-5.2283
X6.5709Y-4.7953
X6.5748Y-3.9055
X6.5748Y-4.7008
X6.5748Y-5.0157
X6.5866Y-4.6181
X6.6024Y-5.1417
X6.6063Y-4.9213
X6.6142Y-4.3228
X6.6142Y-4.7677
X6.6181Y-3.9843
X6.6339Y-5.0984
X6.6457Y-4.7362
X6.6555Y-5.122
X6.6732Y-4.8976
X6.6772Y-4.689
X6.6969Y-3.7441
X6.7008Y-4.5118
X6.7402Y-3.7047
X6.7559Y-5.3937
X6.7795Y-3.9409
X6.815Y-4.9252
X6.8327Y-4.7638
X6.8386Y-5.0512
X6.9173Y-4.7677
X6.9528Y-3.7953
X6.9685Y-5.1378
T2
X6.2031Y-3.8268
X6.2031Y-3.8661
X6.2031Y-3.9055
T3
X3.5591Y-5.2835
X3.6575Y-5.2835
X3.7559Y-5.2835
X3.8543Y-5.2835
X4.2008Y-5.2835
X4.2992Y-5.2835
X4.3976Y-5.2835
X4.4961Y-5.2835
X4.8425Y-5.2835
X4.9409Y-5.2835
X5.0394Y-5.2835
X5.1378Y-5.2835
X5.4843Y-5.2835
X5.5827Y-5.2835
X5.6811Y-5.2835
X5.7795Y-5.2835
X6.126Y-5.2835
X6.2244Y-5.2835
X6.3228Y-5.2835
X6.4213Y-5.2835
X6.5197Y-5.2835
X6.6181Y-5.2835
T4
X5.1232Y-5.0945
X5.2232Y-5.0945
X5.8398Y-5.1024
X5.9398Y-5.1024
X5.9528Y-4.661
X5.9528Y-4.761
X5.9528Y-4.861
X5.9528Y-4.961
X6.7638Y-4.0441
X6.7638Y-4.1441
X6.7638Y-4.2441
X6.7638Y-4.4673
X6.7638Y-4.5673
X6.7638Y-4.6673
X6.7638Y-4.8846
X6.7638Y-4.9846
X6.7638Y-5.0846
T5
X3.2283Y-3.622
M30
