%TF.GenerationSoftware,KiCad,Pcbnew,10.0.1*%
%TF.CreationDate,2026-04-18T21:27:43+02:00*%
%TF.ProjectId,MMS3_hat_protocol,4d4d5333-5f68-4617-945f-70726f746f63,R0*%
%TF.SameCoordinates,Original*%
%TF.FileFunction,Soldermask,Top*%
%TF.FilePolarity,Negative*%
%FSLAX46Y46*%
G04 Gerber Fmt 4.6, Leading zero omitted, Abs format (unit mm)*
G04 Created by KiCad (PCBNEW 10.0.1) date 2026-04-18 21:27:43*
%MOMM*%
%LPD*%
G01*
G04 APERTURE LIST*
G04 Aperture macros list*
%AMRoundRect*
0 Rectangle with rounded corners*
0 $1 Rounding radius*
0 $2 $3 $4 $5 $6 $7 $8 $9 X,Y pos of 4 corners*
0 Add a 4 corners polygon primitive as box body*
4,1,4,$2,$3,$4,$5,$6,$7,$8,$9,$2,$3,0*
0 Add four circle primitives for the rounded corners*
1,1,$1+$1,$2,$3*
1,1,$1+$1,$4,$5*
1,1,$1+$1,$6,$7*
1,1,$1+$1,$8,$9*
0 Add four rect primitives between the rounded corners*
20,1,$1+$1,$2,$3,$4,$5,0*
20,1,$1+$1,$4,$5,$6,$7,0*
20,1,$1+$1,$6,$7,$8,$9,0*
20,1,$1+$1,$8,$9,$2,$3,0*%
G04 Aperture macros list end*
%ADD10R,0.400000X1.700000*%
%ADD11RoundRect,0.219000X0.219000X0.294000X-0.219000X0.294000X-0.219000X-0.294000X0.219000X-0.294000X0*%
%ADD12RoundRect,0.244000X-0.244000X-0.269000X0.244000X-0.269000X0.244000X0.269000X-0.244000X0.269000X0*%
%ADD13RoundRect,0.159000X-0.159000X-0.189000X0.159000X-0.189000X0.159000X0.189000X-0.159000X0.189000X0*%
%ADD14RoundRect,0.244000X0.244000X0.269000X-0.244000X0.269000X-0.244000X-0.269000X0.244000X-0.269000X0*%
%ADD15RoundRect,0.159000X0.159000X0.189000X-0.159000X0.189000X-0.159000X-0.189000X0.159000X-0.189000X0*%
%ADD16C,3.100000*%
%ADD17C,4.700000*%
%ADD18R,1.700000X1.700000*%
%ADD19C,1.700000*%
%ADD20RoundRect,0.239000X-0.239000X-0.274000X0.239000X-0.274000X0.239000X0.274000X-0.239000X0.274000X0*%
%ADD21O,0.588000X2.045000*%
%ADD22RoundRect,0.250000X-1.000000X-0.300000X1.000000X-0.300000X1.000000X0.300000X-1.000000X0.300000X0*%
%ADD23C,0.500000*%
%ADD24RoundRect,0.250000X-0.920000X-1.550000X0.920000X-1.550000X0.920000X1.550000X-0.920000X1.550000X0*%
%ADD25RoundRect,0.244000X0.269000X-0.244000X0.269000X0.244000X-0.269000X0.244000X-0.269000X-0.244000X0*%
%ADD26R,1.000000X3.000000*%
%ADD27RoundRect,0.159000X-0.189000X0.159000X-0.189000X-0.159000X0.189000X-0.159000X0.189000X0.159000X0*%
%ADD28C,1.296000*%
%ADD29RoundRect,0.250000X-0.600000X-0.725000X0.600000X-0.725000X0.600000X0.725000X-0.600000X0.725000X0*%
%ADD30O,1.700000X1.950000*%
%ADD31R,0.260000X0.700000*%
%ADD32R,0.400000X1.650000*%
%ADD33RoundRect,0.244000X-0.269000X0.244000X-0.269000X-0.244000X0.269000X-0.244000X0.269000X0.244000X0*%
%ADD34RoundRect,0.100000X0.100000X-0.637500X0.100000X0.637500X-0.100000X0.637500X-0.100000X-0.637500X0*%
%ADD35RoundRect,0.159000X0.189000X-0.159000X0.189000X0.159000X-0.189000X0.159000X-0.189000X-0.159000X0*%
%ADD36O,1.950000X0.570000*%
G04 APERTURE END LIST*
D10*
%TO.C,U10*%
X146150000Y-120620000D03*
X145500000Y-120620000D03*
X144850000Y-120620000D03*
X144200000Y-120620000D03*
X143550000Y-120620000D03*
X142900000Y-120620000D03*
X142250000Y-120620000D03*
X142250000Y-126220000D03*
X142900000Y-126220000D03*
X143550000Y-126220000D03*
X144200000Y-126220000D03*
X144850000Y-126220000D03*
X145500000Y-126220000D03*
X146150000Y-126220000D03*
%TD*%
D11*
%TO.C,R28*%
X141175000Y-118000000D03*
X139535000Y-118000000D03*
%TD*%
%TO.C,R25*%
X123240000Y-118200000D03*
X121600000Y-118200000D03*
%TD*%
D12*
%TO.C,C9*%
X109820000Y-121450000D03*
X111380000Y-121450000D03*
%TD*%
D13*
%TO.C,R2*%
X150300000Y-115700000D03*
X151300000Y-115700000D03*
%TD*%
%TO.C,R20*%
X157400000Y-117900000D03*
X158400000Y-117900000D03*
%TD*%
%TO.C,R11*%
X119500000Y-119400000D03*
X120500000Y-119400000D03*
%TD*%
D14*
%TO.C,C17*%
X115980000Y-128200000D03*
X114420000Y-128200000D03*
%TD*%
D15*
%TO.C,R12*%
X88815000Y-108571333D03*
X87815000Y-108571333D03*
%TD*%
D13*
%TO.C,R19*%
X99700000Y-125200000D03*
X100700000Y-125200000D03*
%TD*%
D16*
%TO.C,H1*%
X82000000Y-92000000D03*
D17*
X82000000Y-92000000D03*
%TD*%
D15*
%TO.C,R46*%
X88835000Y-95500000D03*
X87835000Y-95500000D03*
%TD*%
D18*
%TO.C,J10*%
X150870000Y-129600000D03*
D19*
X148330000Y-129600000D03*
%TD*%
D20*
%TO.C,D23*%
X84940000Y-112300000D03*
X86520000Y-112300000D03*
%TD*%
D15*
%TO.C,R15*%
X111600000Y-118600000D03*
X110600000Y-118600000D03*
%TD*%
D20*
%TO.C,D24*%
X84910000Y-110433333D03*
X86490000Y-110433333D03*
%TD*%
D21*
%TO.C,U6*%
X124300000Y-111030000D03*
X123030000Y-111030000D03*
X121770000Y-111030000D03*
X120500000Y-111030000D03*
X120500000Y-116170000D03*
X121770000Y-116170000D03*
X123030000Y-116170000D03*
X124300000Y-116170000D03*
%TD*%
D22*
%TO.C,U3*%
X163530000Y-100500000D03*
X163530000Y-98200000D03*
X163530000Y-95900000D03*
D23*
X157560000Y-97200000D03*
X157560000Y-98200000D03*
D24*
X157560000Y-98200000D03*
D23*
X157560000Y-99200000D03*
%TD*%
D25*
%TO.C,C14*%
X143900000Y-116180000D03*
X143900000Y-114620000D03*
%TD*%
D20*
%TO.C,D20*%
X84920000Y-95500000D03*
X86500000Y-95500000D03*
%TD*%
D25*
%TO.C,C21*%
X132300000Y-126180000D03*
X132300000Y-124620000D03*
%TD*%
D18*
%TO.C,J9*%
X151200000Y-118390000D03*
D19*
X151200000Y-120930000D03*
X151200000Y-123470000D03*
X151200000Y-126010000D03*
%TD*%
D15*
%TO.C,R13*%
X88825000Y-99234667D03*
X87825000Y-99234667D03*
%TD*%
D20*
%TO.C,D18*%
X84910000Y-101100000D03*
X86490000Y-101100000D03*
%TD*%
%TO.C,D10*%
X84920000Y-117900000D03*
X86500000Y-117900000D03*
%TD*%
D10*
%TO.C,U8*%
X116050000Y-126400000D03*
X116700000Y-126400000D03*
X117350000Y-126400000D03*
X118000000Y-126400000D03*
X118650000Y-126400000D03*
X119300000Y-126400000D03*
X119950000Y-126400000D03*
X119950000Y-120800000D03*
X119300000Y-120800000D03*
X118650000Y-120800000D03*
X118000000Y-120800000D03*
X117350000Y-120800000D03*
X116700000Y-120800000D03*
X116050000Y-120800000D03*
%TD*%
D26*
%TO.C,J2*%
X108950000Y-93038272D03*
X108950000Y-98078272D03*
X111490000Y-93038272D03*
X111490000Y-98078272D03*
X114030000Y-93038272D03*
X114030000Y-98078272D03*
X116570000Y-93038272D03*
X116570000Y-98078272D03*
X119110000Y-93038272D03*
X119110000Y-98078272D03*
X121650000Y-93038272D03*
X121650000Y-98078272D03*
X124190000Y-93038272D03*
X124190000Y-98078272D03*
X126730000Y-93038272D03*
X126730000Y-98078272D03*
X129270000Y-93038272D03*
X129270000Y-98078272D03*
X131810000Y-93038272D03*
X131810000Y-98078272D03*
X134350000Y-93038272D03*
X134350000Y-98078272D03*
X136890000Y-93038272D03*
X136890000Y-98078272D03*
X139430000Y-93038272D03*
X139430000Y-98078272D03*
X141970000Y-93038272D03*
X141970000Y-98078272D03*
X144510000Y-93038272D03*
X144510000Y-98078272D03*
X147050000Y-93038272D03*
X147050000Y-98078272D03*
%TD*%
D15*
%TO.C,R37*%
X88815000Y-104836667D03*
X87815000Y-104836667D03*
%TD*%
D18*
%TO.C,J5*%
X171800000Y-129150000D03*
D19*
X171800000Y-126610000D03*
X171800000Y-124070000D03*
%TD*%
D10*
%TO.C,U5*%
X163800000Y-129200000D03*
X164450000Y-129200000D03*
X165100000Y-129200000D03*
X165750000Y-129200000D03*
X166400000Y-129200000D03*
X167050000Y-129200000D03*
X167700000Y-129200000D03*
X167700000Y-123600000D03*
X167050000Y-123600000D03*
X166400000Y-123600000D03*
X165750000Y-123600000D03*
X165100000Y-123600000D03*
X164450000Y-123600000D03*
X163800000Y-123600000D03*
%TD*%
D27*
%TO.C,R6*%
X153400000Y-129700000D03*
X153400000Y-130700000D03*
%TD*%
D18*
%TO.C,J3*%
X132670000Y-129400000D03*
D19*
X130130000Y-129400000D03*
%TD*%
D27*
%TO.C,R22*%
X130400000Y-102100000D03*
X130400000Y-103100000D03*
%TD*%
D15*
%TO.C,R39*%
X88815000Y-106704000D03*
X87815000Y-106704000D03*
%TD*%
D20*
%TO.C,D21*%
X84920000Y-121633333D03*
X86500000Y-121633333D03*
%TD*%
D28*
%TO.C,H8*%
X169700000Y-90300000D03*
%TD*%
D29*
%TO.C,J15*%
X139300000Y-134200000D03*
D30*
X141800000Y-134200000D03*
X144300000Y-134200000D03*
X146800000Y-134200000D03*
%TD*%
D11*
%TO.C,R26*%
X126020000Y-118200000D03*
X124380000Y-118200000D03*
%TD*%
D15*
%TO.C,R18*%
X164400000Y-121600000D03*
X163400000Y-121600000D03*
%TD*%
D25*
%TO.C,C11*%
X112200000Y-112180000D03*
X112200000Y-110620000D03*
%TD*%
D27*
%TO.C,R7*%
X109800000Y-127550000D03*
X109800000Y-128550000D03*
%TD*%
D31*
%TO.C,U9*%
X110000000Y-122650000D03*
X109500000Y-122650000D03*
X109000000Y-122650000D03*
X108500000Y-122650000D03*
X108500000Y-125350000D03*
X109000000Y-125350000D03*
X109500000Y-125350000D03*
X110000000Y-125350000D03*
%TD*%
D28*
%TO.C,H7*%
X79400000Y-130400000D03*
%TD*%
D15*
%TO.C,R47*%
X88835000Y-121642667D03*
X87835000Y-121642667D03*
%TD*%
D18*
%TO.C,J14*%
X171800000Y-118550000D03*
D19*
X171800000Y-116010000D03*
X171800000Y-113470000D03*
%TD*%
D32*
%TO.C,U13*%
X111170000Y-106380000D03*
X110520000Y-106380000D03*
X109870000Y-106380000D03*
X109220000Y-106380000D03*
X108570000Y-106380000D03*
X107920000Y-106380000D03*
X107280000Y-106380000D03*
X106620000Y-106380000D03*
X105970000Y-106380000D03*
X105320000Y-106380000D03*
X104670000Y-106380000D03*
X104030000Y-106380000D03*
X104030000Y-112420000D03*
X104670000Y-112420000D03*
X105320000Y-112420000D03*
X105970000Y-112420000D03*
X106620000Y-112420000D03*
X107280000Y-112420000D03*
X107920000Y-112420000D03*
X108570000Y-112420000D03*
X109220000Y-112420000D03*
X109870000Y-112420000D03*
X110520000Y-112420000D03*
X111170000Y-112420000D03*
%TD*%
D12*
%TO.C,C13*%
X129220000Y-126800000D03*
X130780000Y-126800000D03*
%TD*%
D15*
%TO.C,R45*%
X88815000Y-102969333D03*
X87815000Y-102969333D03*
%TD*%
%TO.C,R3*%
X160000000Y-120800000D03*
X159000000Y-120800000D03*
%TD*%
D10*
%TO.C,U4*%
X158100000Y-123600000D03*
X157450000Y-123600000D03*
X156800000Y-123600000D03*
X156150000Y-123600000D03*
X155500000Y-123600000D03*
X154850000Y-123600000D03*
X154200000Y-123600000D03*
X154200000Y-129200000D03*
X154850000Y-129200000D03*
X155500000Y-129200000D03*
X156150000Y-129200000D03*
X156800000Y-129200000D03*
X157450000Y-129200000D03*
X158100000Y-129200000D03*
%TD*%
D13*
%TO.C,R44*%
X127000000Y-102100000D03*
X128000000Y-102100000D03*
%TD*%
D27*
%TO.C,R17*%
X131100000Y-110000000D03*
X131100000Y-111000000D03*
%TD*%
D33*
%TO.C,C2*%
X96000000Y-126220000D03*
X96000000Y-127780000D03*
%TD*%
D12*
%TO.C,C19*%
X147220000Y-126600000D03*
X148780000Y-126600000D03*
%TD*%
D15*
%TO.C,R51*%
X88835000Y-116040667D03*
X87835000Y-116040667D03*
%TD*%
D11*
%TO.C,R24*%
X138555000Y-118000000D03*
X136915000Y-118000000D03*
%TD*%
D12*
%TO.C,C5*%
X165780000Y-98200000D03*
X167340000Y-98200000D03*
%TD*%
D33*
%TO.C,C6*%
X130050000Y-120620000D03*
X130050000Y-122180000D03*
%TD*%
D13*
%TO.C,R21*%
X173100000Y-97600000D03*
X174100000Y-97600000D03*
%TD*%
D20*
%TO.C,D16*%
X84900000Y-106700000D03*
X86480000Y-106700000D03*
%TD*%
D27*
%TO.C,R42*%
X114700000Y-116200000D03*
X114700000Y-117200000D03*
%TD*%
D33*
%TO.C,C4*%
X159750000Y-123620000D03*
X159750000Y-125180000D03*
%TD*%
D29*
%TO.C,J11*%
X123000000Y-134200000D03*
D30*
X125500000Y-134200000D03*
X128000000Y-134200000D03*
X130500000Y-134200000D03*
%TD*%
D15*
%TO.C,R50*%
X88835000Y-110438667D03*
X87835000Y-110438667D03*
%TD*%
D21*
%TO.C,U15*%
X142400000Y-111030000D03*
X141130000Y-111030000D03*
X139870000Y-111030000D03*
X138600000Y-111030000D03*
X138600000Y-116170000D03*
X139870000Y-116170000D03*
X141130000Y-116170000D03*
X142400000Y-116170000D03*
%TD*%
D15*
%TO.C,R43*%
X88825000Y-101102000D03*
X87825000Y-101102000D03*
%TD*%
D18*
%TO.C,J8*%
X171800000Y-107800000D03*
D19*
X171800000Y-105260000D03*
X171800000Y-102720000D03*
%TD*%
D12*
%TO.C,C22*%
X109820000Y-126450000D03*
X111380000Y-126450000D03*
%TD*%
D20*
%TO.C,D9*%
X84910000Y-99233333D03*
X86490000Y-99233333D03*
%TD*%
D13*
%TO.C,R38*%
X116200000Y-103400000D03*
X117200000Y-103400000D03*
%TD*%
D29*
%TO.C,J4*%
X90400000Y-134200000D03*
D30*
X92900000Y-134200000D03*
X95400000Y-134200000D03*
X97900000Y-134200000D03*
%TD*%
D15*
%TO.C,R14*%
X88835000Y-117908000D03*
X87835000Y-117908000D03*
%TD*%
D20*
%TO.C,D22*%
X85010000Y-119700000D03*
X86590000Y-119700000D03*
%TD*%
D25*
%TO.C,C12*%
X125800000Y-116200000D03*
X125800000Y-114640000D03*
%TD*%
D34*
%TO.C,U1*%
X135225000Y-107862500D03*
X135875000Y-107862500D03*
X136525000Y-107862500D03*
X137175000Y-107862500D03*
X137825000Y-107862500D03*
X138475000Y-107862500D03*
X139125000Y-107862500D03*
X139775000Y-107862500D03*
X140425000Y-107862500D03*
X141075000Y-107862500D03*
X141725000Y-107862500D03*
X142375000Y-107862500D03*
X142375000Y-102137500D03*
X141725000Y-102137500D03*
X141075000Y-102137500D03*
X140425000Y-102137500D03*
X139775000Y-102137500D03*
X139125000Y-102137500D03*
X138475000Y-102137500D03*
X137825000Y-102137500D03*
X137175000Y-102137500D03*
X136525000Y-102137500D03*
X135875000Y-102137500D03*
X135225000Y-102137500D03*
%TD*%
D27*
%TO.C,R16*%
X133100000Y-107000000D03*
X133100000Y-108000000D03*
%TD*%
D20*
%TO.C,D17*%
X84920000Y-123500000D03*
X86500000Y-123500000D03*
%TD*%
%TO.C,D15*%
X84900000Y-104833333D03*
X86480000Y-104833333D03*
%TD*%
D12*
%TO.C,C3*%
X165767694Y-95908667D03*
X167327694Y-95908667D03*
%TD*%
D29*
%TO.C,J7*%
X155600000Y-134200000D03*
D30*
X158100000Y-134200000D03*
X160600000Y-134200000D03*
X163100000Y-134200000D03*
X165600000Y-134200000D03*
X168100000Y-134200000D03*
%TD*%
D20*
%TO.C,D26*%
X84920000Y-114166667D03*
X86500000Y-114166667D03*
%TD*%
D27*
%TO.C,R8*%
X107600000Y-127950000D03*
X107600000Y-128950000D03*
%TD*%
D10*
%TO.C,U12*%
X133950000Y-126200000D03*
X134600000Y-126200000D03*
X135250000Y-126200000D03*
X135900000Y-126200000D03*
X136550000Y-126200000D03*
X137200000Y-126200000D03*
X137850000Y-126200000D03*
X137850000Y-120600000D03*
X137200000Y-120600000D03*
X136550000Y-120600000D03*
X135900000Y-120600000D03*
X135250000Y-120600000D03*
X134600000Y-120600000D03*
X133950000Y-120600000D03*
%TD*%
D20*
%TO.C,D6*%
X175400000Y-97600000D03*
X176980000Y-97600000D03*
%TD*%
D11*
%TO.C,R23*%
X120420000Y-118200000D03*
X118780000Y-118200000D03*
%TD*%
D33*
%TO.C,C8*%
X162150000Y-123420000D03*
X162150000Y-124980000D03*
%TD*%
D13*
%TO.C,R10*%
X135600000Y-113000000D03*
X136600000Y-113000000D03*
%TD*%
D15*
%TO.C,R41*%
X88825000Y-123510000D03*
X87825000Y-123510000D03*
%TD*%
D33*
%TO.C,C20*%
X132300000Y-120620000D03*
X132300000Y-122180000D03*
%TD*%
%TO.C,C18*%
X147800000Y-120640000D03*
X147800000Y-122200000D03*
%TD*%
D15*
%TO.C,R5*%
X88825000Y-97367333D03*
X87825000Y-97367333D03*
%TD*%
D35*
%TO.C,R9*%
X107600000Y-126950000D03*
X107600000Y-125950000D03*
%TD*%
D28*
%TO.C,H9*%
X85337849Y-89057177D03*
%TD*%
D29*
%TO.C,J6*%
X106700000Y-134200000D03*
D30*
X109200000Y-134200000D03*
X111700000Y-134200000D03*
X114200000Y-134200000D03*
%TD*%
D10*
%TO.C,U11*%
X128350000Y-120800000D03*
X127700000Y-120800000D03*
X127050000Y-120800000D03*
X126400000Y-120800000D03*
X125750000Y-120800000D03*
X125100000Y-120800000D03*
X124450000Y-120800000D03*
X124450000Y-126400000D03*
X125100000Y-126400000D03*
X125750000Y-126400000D03*
X126400000Y-126400000D03*
X127050000Y-126400000D03*
X127700000Y-126400000D03*
X128350000Y-126400000D03*
%TD*%
D25*
%TO.C,C7*%
X159750000Y-129380000D03*
X159750000Y-127820000D03*
%TD*%
D11*
%TO.C,R27*%
X143795000Y-118000000D03*
X142155000Y-118000000D03*
%TD*%
D27*
%TO.C,R40*%
X114900000Y-104300000D03*
X114900000Y-105300000D03*
%TD*%
D14*
%TO.C,C1*%
X133955000Y-101862500D03*
X132395000Y-101862500D03*
%TD*%
D15*
%TO.C,R48*%
X88900000Y-119700000D03*
X87900000Y-119700000D03*
%TD*%
D25*
%TO.C,C10*%
X162150000Y-129380000D03*
X162150000Y-127820000D03*
%TD*%
D13*
%TO.C,R4*%
X159000000Y-119800000D03*
X160000000Y-119800000D03*
%TD*%
D15*
%TO.C,R49*%
X88835000Y-112306000D03*
X87835000Y-112306000D03*
%TD*%
D20*
%TO.C,D7*%
X84910000Y-97366667D03*
X86490000Y-97366667D03*
%TD*%
%TO.C,D25*%
X84910000Y-116033333D03*
X86490000Y-116033333D03*
%TD*%
%TO.C,D19*%
X84900000Y-102966667D03*
X86480000Y-102966667D03*
%TD*%
D15*
%TO.C,R52*%
X88835000Y-114173333D03*
X87835000Y-114173333D03*
%TD*%
D36*
%TO.C,U2*%
X88890000Y-126090000D03*
X88890000Y-127360000D03*
X88890000Y-128640000D03*
X88890000Y-129910000D03*
X94310000Y-129910000D03*
X94310000Y-128640000D03*
X94310000Y-127360000D03*
X94310000Y-126090000D03*
%TD*%
D33*
%TO.C,C15*%
X114200000Y-120820000D03*
X114200000Y-122380000D03*
%TD*%
D20*
%TO.C,D8*%
X84900000Y-108566667D03*
X86480000Y-108566667D03*
%TD*%
M02*
